<svg fill="currentColor" viewBox="0 0 48 48" xmlns="http://www.w3.org/2000/svg" width="1em" height="1em" font-size="12"><path d="m25.22 2.72.12.06c1 .6 1.4 1.9 1.82 2.9l4.12 9.92.1.24.26.02 10.7.86c1.1.09 2.45.06 3.33.83.66.63.97 1.5.85 2.42-.19 1.2-1.36 2.01-2.22 2.76l-8.16 6.98-.2.17.06.25 2.5 10.45c.24 1.07.7 2.35.23 3.41a2.79 2.79 0 0 1-2.04 1.56c-1.2.2-2.33-.67-3.3-1.26l-9.17-5.6-.22-.13-.22.13-9.17 5.6c-.93.57-2.01 1.4-3.17 1.28a2.78 2.78 0 0 1-2.11-1.45c-.56-1.09-.09-2.44.18-3.54L12 30.13l.06-.25-.2-.17-8.15-6.98c-.84-.72-1.95-1.5-2.2-2.63-.19-.95.12-1.88.82-2.55.88-.77 2.24-.74 3.33-.83l10.7-.86.26-.02.1-.24 4.12-9.91c.44-1.05.85-2.42 1.94-2.97a2.8 2.8 0 0 1 2.44 0Z"></path></svg>